<?xml version="1.0" standalone="no"?>
<!DOCTYPE svg PUBLIC "-//W3C//DTD SVG 20010904//EN"
 "http://www.w3.org/TR/2001/REC-SVG-20010904/DTD/svg10.dtd">
<svg version="1.0" xmlns="http://www.w3.org/2000/svg"
 width="50.000000pt" height="50.000000pt" viewBox="0 0 50.000000 50.000000"
 preserveAspectRatio="xMidYMid meet">

<g transform="translate(0.000000,50.000000) scale(0.100000,-0.100000)"
fill="#000000" stroke="none">
<path d="M0 250 l0 -250 250 0 250 0 0 250 0 250 -250 0 -250 0 0 -250z m319
174 c20 -16 32 -38 36 -62 3 -20 11 -45 16 -55 12 -21 3 -73 -13 -83 -8 -5 -9
3 -5 22 3 17 2 36 -4 44 -6 10 -7 -7 -4 -47 3 -54 1 -64 -15 -73 -18 -10 -17
-50 2 -50 5 0 0 -9 -10 -21 -16 -17 -29 -20 -83 -17 l-64 3 -2 34 c-2 19 -8
39 -13 46 -6 7 -7 21 -3 30 4 11 3 16 -4 12 -5 -4 -15 5 -22 19 -14 31 -15 84
-1 84 6 0 10 -15 10 -32 0 -18 5 -40 11 -48 8 -12 9 -9 5 10 -17 81 -18 139
-2 161 38 55 115 65 165 23z m-206 -324 c-23 -9 -22 -35 1 -53 6 -5 -4 -6 -23
-3 -19 4 -37 9 -40 12 -8 8 51 54 69 53 9 0 5 -4 -7 -9z m322 -31 c9 -14 4
-18 -36 -24 -19 -3 -28 -3 -21 1 6 3 12 17 12 30 0 21 3 23 19 14 11 -5 23
-15 26 -21z m-227 -36 c-10 -2 -28 -2 -40 0 -13 2 -5 4 17 4 22 1 32 -1 23 -4z
m125 0 c-13 -2 -35 -2 -50 0 -16 2 -5 4 22 4 28 0 40 -2 28 -4z"/>
<path d="M170 321 c0 -4 11 -6 25 -3 14 2 25 6 25 8 0 2 -11 4 -25 4 -14 0
-25 -4 -25 -9z"/>
<path d="M271 326 c12 -10 60 -16 54 -6 -3 5 -18 10 -32 10 -15 0 -24 -2 -22
-4z"/>
<path d="M180 290 c0 -5 7 -10 15 -10 8 0 15 5 15 10 0 6 -7 10 -15 10 -8 0
-15 -4 -15 -10z"/>
<path d="M280 290 c0 -5 7 -10 15 -10 8 0 15 5 15 10 0 6 -7 10 -15 10 -8 0
-15 -4 -15 -10z"/>
<path d="M223 224 c3 -4 -3 -14 -14 -23 -19 -15 -17 -16 35 -16 55 0 75 12 36
22 -11 3 -17 9 -14 14 3 5 -7 9 -22 9 -15 0 -25 -3 -21 -6z"/>
<path d="M176 152 c17 -35 50 -62 74 -62 9 0 27 11 40 26 21 21 22 27 10 34
-8 5 -21 10 -27 10 -7 0 -13 5 -13 10 0 6 -7 10 -15 10 -8 0 -15 -4 -15 -9 0
-18 -33 -21 -51 -5 -18 17 -19 16 -3 -14z"/>
</g>
</svg>
